<svg xmlns="http://www.w3.org/2000/svg" viewBox="0 0 303 42.05"><defs><style>.cls-1{fill:#ff9a36;}.cls-2{fill:#e15f54;}</style></defs><g><g><path class="cls-1" d="M77.93,9.4V2.14A2.16,2.16,0,0,0,77.29.61a2.21,2.21,0,0,0-3,0L69.34,5.52a22.56,22.56,0,0,0-4.43-.44C55,5.08,46.9,11.42,46,19.49a12.85,12.85,0,0,0-8,0C37,11.42,28.89,5.08,19,5.08,8.53,5.08,0,12.23,0,21A14.86,14.86,0,0,0,6,32.63v7.26a2.16,2.16,0,0,0,3.68,1.53l4.91-4.91a22.54,22.54,0,0,0,4.43.44c10.2,0,18.55-6.77,19-15.23a10.79,10.79,0,0,1,7.91,0c.44,8.46,8.79,15.23,19,15.23,10.49,0,19-7.15,19-15.93A14.86,14.86,0,0,0,77.93,9.4ZM19,34.82a20.4,20.4,0,0,1-4.54-.51l-.57-.13L8.18,39.92,8.12,40V31.57l-.43-.32A12.87,12.87,0,0,1,2.12,21C2.12,13.4,9.7,7.2,19,7.2S35.91,13.4,35.91,21,28.33,34.82,19,34.82Zm45.89,0C55.59,34.82,48,28.63,48,21S55.59,7.2,64.91,7.2a20.4,20.4,0,0,1,4.54.51l.57.13,5.79-5.79v8.41l.43.32A12.87,12.87,0,0,1,81.8,21C81.8,28.63,74.22,34.82,64.91,34.82Z"></path><path class="cls-2" d="M99.63,32.52,89.2,2.86h4.24l8.48,25.72H102l8.56-25.72h4.11L104.12,32.52Z"></path><path class="cls-2" d="M116,7.18V2.86h3.53V7.18ZM119.57,11V32.52H116V11Z"></path><path class="cls-2" d="M126.34,27.72A3.73,3.73,0,0,0,127.65,29a5.87,5.87,0,0,0,1.83.69,10.44,10.44,0,0,0,2.1.21,12.79,12.79,0,0,0,1.74-.12,6.39,6.39,0,0,0,1.68-.46,3.12,3.12,0,0,0,1.27-1,2.59,2.59,0,0,0,.5-1.64,2.36,2.36,0,0,0-1-2.08,8.9,8.9,0,0,0-2.6-1.14q-1.56-.44-3.39-.79a17.59,17.59,0,0,1-3.39-1,7,7,0,0,1-2.6-1.81,4.7,4.7,0,0,1-1-3.24,5.15,5.15,0,0,1,.73-2.78A6,6,0,0,1,125.33,12a8.61,8.61,0,0,1,2.58-1.08,11.86,11.86,0,0,1,2.85-.35,17,17,0,0,1,3.36.31,7.8,7.8,0,0,1,2.72,1.08A5.61,5.61,0,0,1,138.72,14a7.87,7.87,0,0,1,.83,3.26H136a3.39,3.39,0,0,0-1.7-2.83,5.39,5.39,0,0,0-1.56-.6,8.12,8.12,0,0,0-1.72-.19,10.77,10.77,0,0,0-1.6.12,5.44,5.44,0,0,0-1.47.44,3,3,0,0,0-1.08.83,2.1,2.1,0,0,0-.42,1.35,2,2,0,0,0,.64,1.52,5.09,5.09,0,0,0,1.64,1,14.33,14.33,0,0,0,2.24.67l2.49.56a26.29,26.29,0,0,1,2.6.71,8.51,8.51,0,0,1,2.24,1.1,5.39,5.39,0,0,1,1.58,1.73,5.07,5.07,0,0,1,.6,2.57,6,6,0,0,1-.81,3.24,6.33,6.33,0,0,1-2.12,2.08,8.91,8.91,0,0,1-2.95,1.1,17.53,17.53,0,0,1-3.26.31,15.14,15.14,0,0,1-3.41-.37,8.35,8.35,0,0,1-2.87-1.23,6.27,6.27,0,0,1-2-2.24,7.77,7.77,0,0,1-.83-3.39h3.53A4,4,0,0,0,126.34,27.72Z"></path><path class="cls-2" d="M157.42,32.52V29.12h-.08A7.22,7.22,0,0,1,154.47,32a8.59,8.59,0,0,1-4.11.93,9.61,9.61,0,0,1-3.53-.56,5.59,5.59,0,0,1-2.28-1.6,6,6,0,0,1-1.23-2.47,13.25,13.25,0,0,1-.35-3.18V11h3.53V25.58a4.26,4.26,0,0,0,1.16,3.16,4.32,4.32,0,0,0,3.2,1.16,7.2,7.2,0,0,0,2.8-.5,5.28,5.28,0,0,0,2-1.41,6.07,6.07,0,0,0,1.18-2.14,8.74,8.74,0,0,0,.39-2.68V11h3.54V32.52Z"></path><path class="cls-2" d="M183.76,32.44a5,5,0,0,1-2.53.54,3,3,0,0,1-2.18-.77,3.35,3.35,0,0,1-.81-2.51,8.47,8.47,0,0,1-3.39,2.51,11.69,11.69,0,0,1-6.94.44,6.46,6.46,0,0,1-2.27-1,5,5,0,0,1-1.52-1.85,6.25,6.25,0,0,1-.56-2.76,6.35,6.35,0,0,1,.62-3,5.47,5.47,0,0,1,1.64-1.89,7.51,7.51,0,0,1,2.33-1.1q1.31-.37,2.68-.62T173.6,20a15.3,15.3,0,0,0,2.3-.42,3.82,3.82,0,0,0,1.58-.79,1.93,1.93,0,0,0,.58-1.52,3.53,3.53,0,0,0-.43-1.87,3,3,0,0,0-1.12-1.08,4.58,4.58,0,0,0-1.54-.5,11.88,11.88,0,0,0-1.68-.12,7.47,7.47,0,0,0-3.74.85,3.62,3.62,0,0,0-1.62,3.22H164.4a7.63,7.63,0,0,1,.83-3.36,6.3,6.3,0,0,1,2-2.22,8.37,8.37,0,0,1,2.85-1.23,15.06,15.06,0,0,1,3.43-.37,20.08,20.08,0,0,1,2.89.21,7.54,7.54,0,0,1,2.6.85,5,5,0,0,1,1.87,1.8,5.76,5.76,0,0,1,.71,3v11a8.07,8.07,0,0,0,.15,1.83q.15.58,1,.58a4.21,4.21,0,0,0,1.08-.17Zm-5.73-11a4.41,4.41,0,0,1-1.74.72c-.72.15-1.47.28-2.27.37s-1.58.21-2.39.33a8.67,8.67,0,0,0-2.16.6,3.93,3.93,0,0,0-1.56,1.18,3.3,3.3,0,0,0-.6,2.09,2.84,2.84,0,0,0,.35,1.47,2.9,2.9,0,0,0,.91,1,3.87,3.87,0,0,0,1.31.54,7.3,7.3,0,0,0,1.58.16,8.4,8.4,0,0,0,3-.48,6.31,6.31,0,0,0,2-1.2,4.72,4.72,0,0,0,1.17-1.57A4,4,0,0,0,178,25Z"></path><path class="cls-2" d="M189.33,2.86V32.52H185.8V2.86Z"></path><path class="cls-1" d="M200.23,32.52l-9.6-29.66h6.69l6.61,20.85H204L210.7,2.86h6.73l-9.85,29.66Z"></path><path class="cls-1" d="M216.35,17.13a9.81,9.81,0,0,1,5.73-5.86,12.22,12.22,0,0,1,4.57-.81,12.39,12.39,0,0,1,4.59.81A9.77,9.77,0,0,1,237,17.13a13.24,13.24,0,0,1,.79,4.67,13.07,13.07,0,0,1-.79,4.65A10.08,10.08,0,0,1,234.76,30a9.75,9.75,0,0,1-3.51,2.27,12.72,12.72,0,0,1-4.59.79,12.55,12.55,0,0,1-4.57-.79A9.78,9.78,0,0,1,218.59,30a10.08,10.08,0,0,1-2.24-3.55,13,13,0,0,1-.79-4.65A13.18,13.18,0,0,1,216.35,17.13Zm5.36,7.19a6.71,6.71,0,0,0,.85,2.2,4.54,4.54,0,0,0,1.6,1.56,4.86,4.86,0,0,0,2.49.58,5,5,0,0,0,2.51-.58,4.49,4.49,0,0,0,1.62-1.56,6.66,6.66,0,0,0,.85-2.2,12.62,12.62,0,0,0,.25-2.51,13,13,0,0,0-.25-2.53,6.44,6.44,0,0,0-.85-2.2,4.74,4.74,0,0,0-1.62-1.56,4.87,4.87,0,0,0-2.51-.6,4.54,4.54,0,0,0-4.09,2.16,6.5,6.5,0,0,0-.85,2.2,13,13,0,0,0-.25,2.53A12.62,12.62,0,0,0,221.71,24.32Z"></path><path class="cls-1" d="M240.2,7.72V2.86h5.9V7.72ZM246.1,11V32.52h-5.9V11Z"></path><path class="cls-1" d="M259.39,14.91a4.14,4.14,0,0,0-2.37.64,5.14,5.14,0,0,0-1.56,1.66,7.26,7.26,0,0,0-.85,2.24,12.27,12.27,0,0,0-.25,2.43,11.76,11.76,0,0,0,.25,2.37,7.43,7.43,0,0,0,.81,2.18,4.64,4.64,0,0,0,1.52,1.6,4.15,4.15,0,0,0,2.33.62,4.32,4.32,0,0,0,3.26-1.18A5.6,5.6,0,0,0,264,24.3h5.69a9.73,9.73,0,0,1-3.32,6.52,10.71,10.71,0,0,1-7,2.24,11.77,11.77,0,0,1-4.43-.81A9.78,9.78,0,0,1,251.45,30a10.31,10.31,0,0,1-2.2-3.47,12,12,0,0,1-.79-4.42,14.25,14.25,0,0,1,.73-4.63,10.34,10.34,0,0,1,2.14-3.7,9.79,9.79,0,0,1,3.45-2.43,11.71,11.71,0,0,1,4.65-.87,13.48,13.48,0,0,1,3.68.5,9.82,9.82,0,0,1,3.16,1.52,7.84,7.84,0,0,1,3.26,6.13h-5.77A4,4,0,0,0,259.39,14.91Z"></path><path class="cls-1" d="M278,27.37a6.06,6.06,0,0,0,6.9.39,3.7,3.7,0,0,0,1.58-1.89h5.19a9.86,9.86,0,0,1-3.82,5.53,11.26,11.26,0,0,1-6.23,1.66,12.29,12.29,0,0,1-4.57-.81,9.47,9.47,0,0,1-3.45-2.31,10.31,10.31,0,0,1-2.18-3.57,13.06,13.06,0,0,1-.77-4.57,12.53,12.53,0,0,1,.79-4.49,10.49,10.49,0,0,1,2.24-3.59,10.6,10.6,0,0,1,3.47-2.39,11.13,11.13,0,0,1,4.47-.87,10.2,10.2,0,0,1,4.78,1.06,9.54,9.54,0,0,1,3.34,2.85,11.66,11.66,0,0,1,1.89,4.07,15.2,15.2,0,0,1,.42,4.78h-15.5A6,6,0,0,0,278,27.37Zm6.67-11.3a4.15,4.15,0,0,0-3.22-1.16,5.15,5.15,0,0,0-2.35.48,4.46,4.46,0,0,0-1.5,1.19,4.3,4.3,0,0,0-.79,1.5,6.68,6.68,0,0,0-.27,1.41h9.6A6.82,6.82,0,0,0,284.67,16.07Z"></path><path class="cls-1" d="M294.13,13.12a4.31,4.31,0,0,1,1-1.41,4.59,4.59,0,0,1,1.47-.9,5,5,0,0,1,3.5,0,4.64,4.64,0,0,1,1.47.9,4.35,4.35,0,0,1,1,1.41,4.44,4.44,0,0,1-2.49,6,5.06,5.06,0,0,1-3.5,0,4.42,4.42,0,0,1-1.47-.9,4.37,4.37,0,0,1-1-1.42,4.75,4.75,0,0,1,0-3.72Zm1.11,3.27a3.46,3.46,0,0,0,.72,1.13,3.21,3.21,0,0,0,1.08.74,3.43,3.43,0,0,0,2.65,0,3.24,3.24,0,0,0,1.08-.74,3.59,3.59,0,0,0,.73-1.13,3.82,3.82,0,0,0,0-2.84,3.59,3.59,0,0,0-.73-1.11,3.37,3.37,0,0,0-4.8,0,3.45,3.45,0,0,0-.72,1.11,3.91,3.91,0,0,0,0,2.84Zm3.24-3.95a2.67,2.67,0,0,1,1.46.34,1.28,1.28,0,0,1,.51,1.16,1.54,1.54,0,0,1-.1.6,1.09,1.09,0,0,1-.28.4,1.26,1.26,0,0,1-.42.24,2.09,2.09,0,0,1-.52.11l1.35,2.2h-1l-1.23-2.16h-.63v2.16h-1v-5Zm0,2.11a1.8,1.8,0,0,0,.71-.12c.18-.08.28-.27.28-.58a.51.51,0,0,0-.09-.33.67.67,0,0,0-.25-.19,1.33,1.33,0,0,0-.34-.09l-.36,0h-.84v1.33Z"></path></g></g></svg>
